{"title":"Ludacris Ft. Wiz Khalifa, Jeremih &amp; Cashmere Cat - Party Gir","uid":10090241,"size":65323345,"categoryP":"video","categoryS":"music_videos","magnet":"?xt=urn:btih:feb42f32baa566e434f81a68b391db9b6bcbecb5&amp;dn=Ludacris+Ft.+Wiz+Khalifa%2C+Jeremih+%26amp%3B+Cashmere+Cat+-+Party+Gir&amp;tr=udp%3A%2F%2Ftracker.openbittorrent.com%3A80&amp;tr=udp%3A%2F%2Fopen.demonii.com%3A1337&amp;tr=udp%3A%2F%2Ftracker.coppersurfer.tk%3A6969&amp;tr=udp%3A%2F%2Fexodus.desync.com%3A6969","seeders":1,"leechers":0,"uploader":"Sbyky","files":1,"time":1399181371,"description":"\n\nGeneral\nComplete name                            : Ludacris Ft. Wiz Khalifa, Jeremih &amp; Cashmere Cat - Party Girls [Explicit] 720p [Sbyky].mp4\nFormat                                   : MPEG-4\nFormat profile                           : Base Media\nCodec ID                                 : isom\nFile size                                : 62.3 MiB\nDuration                                 : 4mn 18s\nOverall bit rate mode                    : Variable\nOverall bit rate                         : 2 021 Kbps\nEncoded date                             : UTC 2014-04-28 13:54:52\nTagged date                              : UTC 2014-04-28 13:54:52\n\nVideo\nID                                       : 1\nFormat                                   : AVC\nFormat/Info                              : Advanced Video Codec\nFormat profile                           : &lt;a class=&quot;__cf_email__&quot; href=&quot;/cdn-cgi/l/email-protection&quot; data-cfemail=&quot;6a270b03042a2659445b&quot;&gt;[email&amp;#160;protected]&lt;/a&gt;&lt;script cf-hash='f9e31' type=&quot;text/javascript&quot;&gt;\n/* &lt;![CDATA[ */!function(){try{var t=&quot;currentScript&quot;in document?document.currentScript:function(){for(var t=document.getElementsByTagName(&quot;script&quot;),e=t.length;e--;)if(t[e].getAttribute(&quot;cf-hash&quot;))return t[e]}();if(t&amp;&amp;t.previousSibling){var e,r,n,i,c=t.previousSibling,a=c.getAttribute(&quot;data-cfemail&quot;);if(a){for(e=&quot;&quot;,r=parseInt(a.substr(0,2),16),n=2;a.length-n;n+=2)i=parseInt(a.substr(n,2),16)^r,e+=String.fromCharCode(i);e=document.createTextNode(e),c.parentNode.replaceChild(e,c)}}}catch(u){}}();/* ]]&gt; */&lt;/script&gt;\nFormat settings, CABAC                   : Yes\nFormat settings, ReFrames                : 3 frames\nCodec ID                                 : avc1\nCodec ID/Info                            : Advanced Video Coding\nDuration                                 : 4mn 18s\nBit rate                                 : 1 891 Kbps\nWidth                                    : 1 280 pixels\nHeight                                   : 720 pixels\nDisplay aspect ratio                     : 16:9\nFrame rate mode                          : Variable\nFrame rate                               : 23.976 fps\nMinimum frame rate                       : 23.974 fps\nMaximum frame rate                       : 24.122 fps\nColor space                              : YUV\nChroma subsampling                       : 4:2:0\nBit depth                                : 8 bits\nScan type                                : Progressive\nBits/(Pixel*Frame)                       : 0.086\nStream size                              : 58.3 MiB (94%)\nEncoded date                             : UTC 2014-04-28 13:54:52\nTagged date                              : UTC 2014-04-28 13:54:52\n\nAudio\nID                                       : 2\nFormat                                   : AAC\nFormat/Info                              : Advanced Audio Codec\nFormat profile                           : LC\nCodec ID                                 : 40\nDuration                                 : 4mn 18s\nBit rate mode                            : Variable\nBit rate                                 : 126 Kbps\nChannel(s)                               : 2 channels\nChannel positions                        : Front: L R\nSampling rate                            : 44.1 KHz\nCompression mode                         : Lossy\nStream size                              : 3.87 MiB (6%)\nEncoded date                             : UTC 2014-04-28 13:55:37\nTagged date                              : UTC 2014-04-28 13:55:37\n\nShared By Sbyky\n","torrent":{"xt":"urn:btih:feb42f32baa566e434f81a68b391db9b6bcbecb5","amp;dn":"Ludacris+Ft.+Wiz+Khalifa%2C+Jeremih+%26amp%3B+Cashmere+Cat+-+Party+Gir","amp;tr":["udp%3A%2F%2Ftracker.openbittorrent.com%3A80","udp%3A%2F%2Fopen.demonii.com%3A1337","udp%3A%2F%2Ftracker.coppersurfer.tk%3A6969","udp%3A%2F%2Fexodus.desync.com%3A6969"],"infoHash":"feb42f32baa566e434f81a68b391db9b6bcbecb5","infoHashBuffer":{"type":"Buffer","data":[254,180,47,50,186,165,102,228,52,248,26,104,179,145,219,155,107,203,236,181]},"announce":[],"urlList":[]}}